<svg width="564" height="324" viewBox="0 0 564 324" fill="none" xmlns="http://www.w3.org/2000/svg">
<g clip-path="url(#clip0_8595_113961)">
<path d="M554.269 9.58455C487.615 26.0827 341.77 62.192 341.77 62.192L336.47 63.5026V77.3958C336.47 77.3958 336.47 83.0973 332.696 87.013C330.021 89.7818 325.854 91.2235 320.373 91.289H305.309L300.813 90.732C295.48 90.0767 295.349 88.8971 295.119 86.931V86.7672L295.086 85.5548L295.119 85.5876L295.004 76.1179L295.037 76.1507L294.84 59.8327L294.807 57.2933L294.709 47.2502L294.807 47.3321L294.66 30.6701L294.578 23.6088L294.496 23.5269C296.251 21.0202 297.236 18.0221 297.236 14.9256C297.236 6.68467 290.525 -0.0161743 282.271 -0.0161743C274.017 -0.0161743 267.289 6.68467 267.289 14.9256C267.289 18.0221 268.274 21.0366 270.03 23.5269L269.931 23.6252L269.636 47.3157L269.767 47.1847L269.636 57.2441L269.685 57.195L269.586 66.6646L269.488 76.1015L269.39 85.5548L269.357 87.3734C269.357 87.4717 269.258 87.8977 269.258 87.8977C269.029 88.9462 268.503 90.093 263.728 90.6829L259.167 91.2399H243.676C228.58 91.0597 227.48 80.5087 227.497 77.3467V63.4535L222.197 62.1428C222.197 62.1428 76.3519 26.0336 9.69783 9.5354L0 7.17618L1.13223 17.121C1.52605 20.5615 3.13415 24.5099 9.25478 29.3758L9.74705 36.7156C10.1409 42.6628 13.4884 71.0063 40.9081 82.7696L31.9487 80.5742L34.2952 91.4529C34.4921 92.3867 38.9226 111.834 59.8935 122.827L55.1677 122.287L60.7632 133.722C61.3375 134.886 74.711 161.623 101.983 163.442L102.213 164.835C102.475 166.424 105.445 180.464 130.453 183.987C135.441 184.691 146.403 184.904 147.748 184.921H167.357C166.996 186.084 166.619 187.214 165.913 189.312L164.24 194.259C163.78 195.636 158.972 210.184 158.562 211.396C156.905 216.361 156.215 218.376 154.558 223.176L153.688 225.699C152.966 225.634 152.195 225.601 151.375 225.601C146.091 225.601 141.349 227.141 137.214 230.205C134.572 232.187 130.88 235.791 128.303 241.64C125.596 247.751 126.17 252.208 127.483 255.288L121.986 257.385L120.788 259.875C120.476 260.514 120.181 261.153 119.885 261.792C119.623 262.365 119.36 262.939 119.065 263.561C118.491 264.757 117.867 265.97 117.26 267.166L115.898 269.82L116.374 272.212L116.472 272.671L117.047 275.62L119.59 277.225C123.249 279.519 127.795 279.994 130.962 279.994C137.64 279.994 143.236 278.159 148.076 274.358C148.208 274.26 148.323 274.162 148.437 274.063C148.716 274.424 148.995 274.751 149.274 275.03C153.885 279.929 161.023 279.929 163.37 279.929C165.716 279.929 171.886 279.929 177.777 276.16L179.697 279.519L184.472 279.339C187.541 279.224 188.952 279.175 191.282 279.175C192.119 279.175 193.087 279.175 194.252 279.191L197.107 279.224L199.158 277.258L201.095 275.44L201.521 273.261C202.013 270.721 202.358 269.197 202.998 266.511C204.426 266.33 205.935 266.003 207.511 265.462C207.133 267.313 206.789 268.968 206.428 270.639L205.837 273.457L207.396 275.866L209.726 279.568L213.795 279.372C217.11 279.208 217.832 279.208 223.411 279.208H235.587L237.605 279.142L237.9 279.47L241.117 279.372C246.105 279.208 246.63 279.208 251.52 279.208C251.307 291.463 251.077 300.899 250.798 309.747V310.566L250.913 311.27L251.093 312.253L251.307 312.81C254.227 320.511 271.129 323.967 282.189 323.967H282.386C289.688 323.787 303.98 321.821 311.2 315.628L313.678 313.515L313.645 310.254C313.645 310.058 313.415 302.833 313.415 302.833C313.186 295.755 312.956 288.677 312.726 279.404L314.548 279.339C317.649 279.224 319.06 279.175 321.571 279.175C322.211 279.175 322.9 279.175 323.704 279.175L323.917 279.372L326.608 279.306C330.497 279.208 331.925 279.208 336.159 279.208H339.358L341.623 276.57L342.739 275.341L343.165 276.504L347.153 279.372L353.749 279.224C355.505 279.175 356.834 279.142 359.066 279.109L359.509 279.47L362.183 279.355C366.171 279.191 366.417 279.191 370.519 279.191L373.686 279.093L375.77 276.832L376.722 275.784C376.919 276.013 377.936 277.258 377.936 277.258L379.019 278.012L380.988 279.47L383.433 279.372C387.421 279.208 388.044 279.208 392.097 279.208L395.839 279.109L397.151 277.209L398.185 277.995L400.154 279.453L402.599 279.372C407.309 279.208 408.195 279.208 413.15 279.208H416.301L418.172 277.078L418.352 277.242L419.534 277.733C423.012 279.175 427.18 279.978 431.266 279.978C439.241 279.978 444.541 277.225 447.052 271.72C448.332 268.87 449.218 264.069 446.264 257.369C444.065 252.404 441.128 249.308 437.715 246.818L439.29 246.015L436.927 240.1L435.418 236.299C434.991 235.218 434.597 234.153 434.203 233.072L433.449 230.991L432.448 229.943L431.069 228.501L429.74 227.927C428.247 227.288 424.259 225.568 418.598 225.568C415.087 225.568 412.412 226.273 410.344 227.321L410.459 227.141L410.279 224.733C410.115 222.472 409.803 219.195 409.54 216.443L409.294 213.854C408.95 210.594 408.605 207.333 408.244 204.188C407.752 199.256 406.882 191.818 406.242 187.165C406.177 186.412 406.094 185.658 405.996 184.888H414.562C415.792 184.872 426.737 184.659 431.742 183.954C456.766 180.432 459.736 166.391 459.982 164.802L460.196 163.491C460.36 163.491 460.54 163.491 460.704 163.491C488.78 162.508 502.613 134.886 503.188 133.706L508.783 122.27L504.057 122.811C525.028 111.818 529.459 92.3867 529.672 91.4365L532.019 80.5578L523.043 82.7532C550.446 71.0063 553.81 42.6628 554.22 36.6992L554.712 29.343C560.817 24.4772 562.425 20.5287 562.819 17.0882L563.934 7.14341L554.204 9.55179L554.269 9.58455Z" fill="white"/>
<path d="M258.56 278.913C258.313 292.871 258.067 302.243 257.821 309.992C257.837 310.123 257.87 310.238 257.887 310.369C258.806 312.777 269.324 317.037 282.254 317.037C290.082 316.84 301.65 314.711 306.704 310.385C306.704 310.254 306.704 310.14 306.704 310.009C306.392 300.146 306.097 291.561 305.785 278.913C298.056 278.683 290.213 278.569 282.287 278.569C274.362 278.569 266.37 278.683 258.576 278.929L258.56 278.913Z" fill="#0156E1"/>
<path d="M281.746 304.045C275.576 304.045 269.57 303.373 263.778 302.128C263.745 303.766 263.696 305.306 263.663 306.715C266.551 308.124 273.541 310.271 282.205 310.271C289.113 310.074 296.694 308.436 300.879 306.339C300.83 304.897 300.797 303.406 300.747 301.899C294.643 303.291 288.293 304.045 281.762 304.045H281.746Z" fill="#4089F2"/>
<path d="M325.296 138.277L522.911 90.0109C522.911 90.0109 518.071 112.489 491.57 120.451C410.082 134.656 336.979 145.338 324.393 147.189L325.296 138.293V138.277Z" fill="url(#paint0_linear_8595_113961)"/>
<path d="M326.576 125.563C338.735 123.859 361.855 117.65 373.555 95.139C468.039 66.0255 485.17 60.4551 487.025 59.8489C488.944 59.2919 505.6 54.3932 522.731 47.6596C533.43 43.4654 541.388 39.6972 547.328 36.2731C547 41.139 543.817 70.2524 514.1 78.5916C482.922 87.324 337.373 129.675 325.837 133.034L326.592 125.579L326.576 125.563Z" fill="url(#paint1_linear_8595_113961)"/>
<path d="M343.461 68.9581V77.199C343.461 77.199 344.035 97.9569 320.389 98.2518H305.834L307.016 158.527H314.597L318.716 117.584C318.716 117.584 354.57 117.863 367.385 88.0121C470.779 56.1626 484.448 51.608 484.448 51.608C484.448 51.608 554.237 31.4235 555.943 16.3507C489.289 32.8489 343.444 68.9581 343.444 68.9581H343.461Z" fill="url(#paint2_linear_8595_113961)"/>
<path d="M324.065 150.581L497.001 130.675C497.001 130.675 484.76 155.709 460.54 156.561C431.906 157.052 345.364 158.183 323.277 158.478L324.065 150.581Z" fill="url(#paint3_linear_8595_113961)"/>
<path d="M414.496 163.098C390.719 162.606 343.592 163.278 306.589 163.163L306.917 177.958H414.496C414.496 177.958 426.114 177.761 430.823 177.089C451.466 174.173 453.156 163.72 453.156 163.72L414.496 163.081V163.098Z" fill="url(#paint4_linear_8595_113961)"/>
<path d="M238.704 138.277L41.105 89.9945C41.105 89.9945 45.9457 112.473 72.4301 120.435C153.918 134.64 227.021 145.322 239.607 147.173L238.704 138.277Z" fill="url(#paint5_linear_8595_113961)"/>
<path d="M238.179 133.018C226.66 129.659 81.1106 87.3076 49.9167 78.5752C20.1833 70.236 17.0163 41.1226 16.6881 36.2567C22.6283 39.6808 30.5867 43.449 41.2855 47.6432C58.4167 54.3768 75.072 59.2755 76.9919 59.8325C78.8461 60.4387 95.9609 66.0091 190.461 95.1226C202.161 117.633 225.282 123.843 237.441 125.547L238.196 133.001L238.179 133.018Z" fill="url(#paint6_linear_8595_113961)"/>
<path d="M8.05692 16.3507C9.76347 31.4235 79.5517 51.608 79.5517 51.608C79.5517 51.608 93.2206 56.1626 196.615 88.0121C209.43 117.879 245.284 117.584 245.284 117.584L249.403 158.527H256.984L258.166 98.2518H243.594C219.949 97.9733 220.523 77.199 220.523 77.199V68.9581C220.523 68.9581 74.711 32.8325 8.05692 16.3507Z" fill="url(#paint7_linear_8595_113961)"/>
<path d="M240.756 158.478C218.669 158.183 132.127 157.052 103.493 156.561C79.2892 155.709 67.0315 130.675 67.0315 130.675L239.951 150.581L240.756 158.478Z" fill="url(#paint8_linear_8595_113961)"/>
<path d="M256.705 177.958H147.765C147.765 177.958 136.147 177.761 131.438 177.089C110.795 174.173 109.105 163.72 109.105 163.72L147.765 163.081C171.837 162.573 219.817 163.262 257.017 163.147L256.722 177.958H256.705Z" fill="url(#paint9_linear_8595_113961)"/>
<path d="M276.889 20.8398C275.28 19.3817 274.263 17.2846 274.263 14.9417C274.263 10.5346 277.84 6.96298 282.254 6.96298C286.668 6.96298 290.246 10.5346 290.246 14.9417C290.246 17.2682 289.228 19.3653 287.637 20.8398C285.832 19.0868 284.027 17.3174 282.254 15.5315C280.482 17.3174 278.694 19.0868 276.872 20.8398H276.889ZM282.271 35.372C284.059 37.1414 285.881 38.9272 287.702 40.6802C287.702 39.2876 287.669 37.9114 287.653 36.5352C285.848 34.7822 284.059 33.0127 282.271 31.2269C280.499 33.0127 278.694 34.7822 276.872 36.5516C276.872 37.9278 276.839 39.3204 276.823 40.6966C278.661 38.9272 280.466 37.1578 282.271 35.372ZM276.741 50.3301C278.611 48.5607 280.449 46.7913 282.271 45.0055C284.092 46.7913 285.93 48.5607 287.784 50.3137C287.784 49.0358 287.768 47.7579 287.751 46.4636C285.914 44.7106 284.092 42.9411 282.271 41.1553C280.466 42.9411 278.628 44.7269 276.774 46.48C276.774 47.7579 276.757 49.0358 276.741 50.3137V50.3301ZM282.271 25.4436C284.059 27.2294 285.881 28.9988 287.702 30.7518C287.702 29.3756 287.669 27.983 287.653 26.6068C285.848 24.8538 284.059 23.0843 282.271 21.2985C280.499 23.0843 278.694 24.8538 276.872 26.6232C276.872 27.9994 276.839 29.392 276.823 30.7682C278.661 28.9988 280.466 27.2294 282.271 25.4436ZM301.88 177.974C301.24 157.675 300.6 117.945 299.976 97.662C290.738 96.5316 288.752 92.3865 288.211 87.75H288.129C288.129 86.8161 288.112 85.8987 288.112 84.9648C286.143 83.2118 284.207 81.4424 282.287 79.6565C280.351 81.4424 278.398 83.2282 276.429 84.9976C276.429 85.915 276.413 86.8325 276.396 87.75C276.347 88.176 276.281 88.5856 276.199 89.0115C278.251 87.193 280.285 85.358 282.287 83.5067C284.305 85.358 286.324 87.193 288.391 89.0115C288.424 92.3538 288.473 95.696 288.49 99.0546C288.523 99.2676 288.539 99.4642 288.539 99.6772C288.572 102.675 285.799 105.149 282.304 105.149C278.808 105.149 276.035 102.675 276.068 99.6772C276.068 99.4642 276.068 99.2512 276.117 99.0546C276.101 99.0546 276.085 99.0546 276.068 99.0546C276.117 95.7124 276.15 92.3865 276.183 89.0443C275.395 93.1238 272.967 96.6298 264.598 97.6456C263.958 117.945 263.318 157.675 262.678 177.974H301.896H301.88ZM276.462 79.2142C278.415 77.4448 280.351 75.6754 282.271 73.8732C284.191 75.659 286.11 77.412 288.047 79.1814C288.047 77.9035 288.014 76.6256 287.998 75.3477C286.061 73.5947 284.158 71.8252 282.254 70.0394C280.351 71.8252 278.431 73.611 276.495 75.3805C276.495 76.6584 276.462 77.9363 276.445 79.2142H276.462ZM276.642 59.9636C278.546 58.1942 280.417 56.4248 282.271 54.639C284.125 56.4248 285.996 58.1942 287.883 59.9472C287.883 58.6693 287.85 57.3914 287.85 56.1135C285.979 54.3604 284.125 52.591 282.287 50.8052C280.449 52.591 278.579 54.3604 276.708 56.1298C276.708 57.4078 276.675 58.7021 276.659 59.98L276.642 59.9636ZM276.544 69.5971C278.464 67.8277 280.367 66.0583 282.254 64.2561C284.141 66.0419 286.028 67.7949 287.948 69.5643C287.948 68.2864 287.916 67.0085 287.899 65.7142C285.996 63.9612 284.125 62.1917 282.254 60.4059C280.384 62.1917 278.497 63.9775 276.577 65.7306C276.56 67.0085 276.544 68.2864 276.528 69.5807L276.544 69.5971Z" fill="#0156E1"/>
<path d="M290.443 133.231C291.214 133.231 291.985 133.28 292.74 133.362C293.117 133.788 293.478 134.214 293.806 134.672C292.953 134.574 292.083 134.508 291.197 134.508C281.549 134.508 273.295 140.652 270.194 149.237C272.36 140.079 280.597 133.231 290.443 133.231ZM290.443 131.691C290.607 131.691 290.787 131.691 290.951 131.691C290.475 131.33 289.999 131.002 289.491 130.691C279.235 130.691 270.686 138.129 268.963 147.877C268.963 147.877 268.963 147.877 268.963 147.894C271.621 138.539 280.236 131.658 290.459 131.658L290.443 131.691Z" fill="#F18700"/>
<path d="M286.504 129.397C281.647 127.89 276.15 129.036 272.278 132.837C268.996 136.065 267.634 140.472 268.159 144.699C270.768 136.622 277.857 130.527 286.488 129.38L286.504 129.397Z" fill="#E30613"/>
<path d="M294.889 136.376C293.692 136.163 292.461 136.032 291.197 136.032C281.5 136.032 273.328 142.7 271.047 151.695C271.375 152.121 271.736 152.547 272.13 152.94C277.643 158.527 286.652 158.592 292.248 153.087C296.809 148.598 297.695 141.783 294.873 136.393L294.889 136.376Z" fill="#E30613"/>
<path d="M154.509 242.885C153.656 241.738 152.622 240.362 149.849 240.362C147.896 240.362 145.861 241.574 145.074 243.491C144.302 245.359 145.09 246.637 146.846 248.39C150.144 251.912 152.409 254.108 150.111 260.219C148.7 263.954 146.304 266.936 143.794 268.918C139.445 272.326 134.966 273.047 131.011 273.047C127.992 273.047 125.202 272.506 123.348 271.343C123.315 271.179 123.282 271.015 123.233 270.852C123.971 269.426 124.71 267.984 125.399 266.559C125.99 265.347 126.515 264.134 127.106 262.922C127.253 262.873 127.401 262.807 127.549 262.758C128.008 263.413 129.354 265.232 133.062 265.232C136.935 265.232 138.576 262.267 138.904 261.431C139.708 259.449 138.674 258.351 137.279 256.811C136.787 256.303 136.278 255.779 135.786 255.271C134.112 253.403 131.897 250.815 134.703 244.474C136.426 240.558 138.953 237.642 141.447 235.774C144.417 233.579 147.699 232.58 151.408 232.58C155.69 232.58 157.61 233.907 158.365 234.398C158.365 234.529 158.398 234.66 158.414 234.791C157.791 236.168 157.184 237.544 156.609 238.92C156.068 240.182 155.543 241.443 155.001 242.721C154.853 242.77 154.689 242.836 154.542 242.885H154.509ZM188.903 233.251C185.801 233.366 184.8 233.415 180.846 233.415C180.714 233.53 180.583 233.628 180.452 233.743C179.697 236.332 179.516 236.889 178.827 239.084C177.006 244.916 175.086 251.077 173.15 256.909C171.919 260.874 170.573 265.003 166.865 265.003C166.11 265.003 165.093 264.839 164.601 263.741C163.911 262.25 164.601 260.104 166.225 255.205C168.637 247.997 171.049 240.788 173.609 233.563C173.56 233.448 173.527 233.35 173.478 233.235C168.883 233.399 167.85 233.399 163.616 233.399C163.501 233.514 163.37 233.612 163.255 233.727C162.172 236.97 161.434 239.117 159.957 243.147C158.004 248.488 157.807 249.029 156.462 252.83C156.183 253.6 155.904 254.37 155.625 255.14C153.77 260.202 152.884 262.742 152.769 264.986C152.277 272.965 160.974 272.965 163.435 272.965C165.897 272.965 172.05 272.965 176.842 268.066C179.763 265.101 180.599 262.348 182.618 255.467C182.897 254.566 183.159 253.665 183.438 252.764C187.015 240.608 187.803 237.904 189.132 233.546C189.067 233.432 189.001 233.333 188.935 233.219L188.903 233.251ZM215.239 245.85C214.829 247.882 213.533 254.828 206.985 258.187C203.736 259.842 200.766 259.842 197.55 259.776C195.893 266.494 195.515 268.034 194.744 271.949C194.629 272.064 194.514 272.162 194.4 272.277C189.592 272.228 188.328 272.277 183.717 272.441C183.652 272.326 183.586 272.211 183.537 272.113C187.294 259.17 189.017 253.174 192.266 241.066C193.054 238.101 193.563 236.217 194.137 233.743C194.252 233.628 194.367 233.53 194.465 233.415C196.516 233.415 197.156 233.415 202.982 233.301C203.687 233.251 204.311 233.251 205 233.251C209.25 233.251 217.619 233.251 215.223 245.85H215.239ZM203.261 240.903C202.965 240.903 202.801 240.903 202.096 240.952C201.226 244.589 200.356 248.226 199.486 251.847C200.455 251.847 201.242 251.847 202.046 251.519C204.179 250.536 205.049 247.62 205.492 245.572C206.067 243.049 205.788 240.886 203.244 240.886L203.261 240.903ZM236.489 255.828C237.031 252.797 237.178 251.65 237.769 248.619C237.687 248.504 237.589 248.406 237.507 248.291C235.242 248.406 230.992 248.504 228.071 248.504C228.498 245.424 228.629 244.654 229.187 241.296C232.288 241.247 232.6 241.247 233.142 241.247C234.044 241.247 238.032 241.296 238.836 241.296C238.951 241.181 239.065 241.083 239.18 240.968C239.623 238.166 239.755 237.118 240.444 233.595C240.378 233.481 240.312 233.383 240.247 233.268C237.802 233.317 236.867 233.317 228.859 233.382C223.444 233.432 222.837 233.432 220.687 233.432C220.572 233.546 220.457 233.645 220.343 233.759C219.456 240.313 218.094 247.685 216.798 254.616C215.157 263.43 214.205 268.001 213.319 272.129C213.385 272.244 213.467 272.342 213.533 272.457C217.011 272.293 217.848 272.293 223.477 272.293H235.652C235.767 272.179 235.898 272.08 236.013 271.966C236.538 268.607 236.719 267.558 237.424 264.036C237.326 263.921 237.244 263.823 237.146 263.708C233.897 263.987 228.268 264.036 225.643 264.036C226.053 261.398 226.463 258.744 226.873 256.106C229.597 256.106 233.929 256.106 236.128 256.156C236.243 256.041 236.374 255.943 236.489 255.828ZM269.488 271.622C269.406 271.753 269.34 271.884 269.258 272.015C264.155 272.179 262.892 272.244 258.002 272.506C257.887 272.392 257.755 272.293 257.641 272.179C257.46 271.572 257.28 270.966 257.148 270.311C256.459 267.509 255.786 264.642 255.146 261.841C254.835 260.497 254.523 259.154 254.227 257.827C253.653 257.876 253.276 257.876 252.701 257.876C252.16 264.642 251.979 267.018 251.914 271.966C251.815 272.08 251.717 272.179 251.618 272.293C246.63 272.293 246.089 272.293 240.969 272.457C240.87 272.342 240.772 272.228 240.673 272.129C241.034 269.426 242.692 256.156 243.02 253.19C243.397 249.668 244.448 239.543 244.792 233.759C244.858 233.645 244.94 233.546 245.022 233.432C246.728 233.432 254.999 233.317 256.902 233.317C259.725 233.317 262.596 233.481 264.549 234.693C268.356 237.003 268.503 242.557 268.405 244.982C268.192 251.699 264.926 254.075 263.302 255.222C263.909 257.057 264.532 258.892 265.156 260.727C266.058 263.25 267.437 267.28 269.504 271.622H269.488ZM257.936 242.508C257.641 241.689 257.099 240.968 255.639 240.968C255.179 240.968 254.539 240.968 254.129 241.083C253.932 243.671 253.489 247.915 253.227 250.503C254.408 250.618 255.097 250.389 255.294 250.339C257.723 249.52 258.133 246.932 258.248 245.326C258.297 244.671 258.313 243.507 257.936 242.524V242.508ZM306.95 252.535C302.503 252.748 301.683 252.748 297.17 252.699C297.088 252.813 297.006 252.912 296.924 253.026C297.072 254.288 297.318 255.992 297.416 259.858C297.449 261.284 297.433 262.496 297.416 263.823C297.039 263.987 296.629 264.151 295.661 264.151C290.18 264.151 289.934 256.336 289.917 253.518C289.917 249.766 290.328 241.345 298.106 241.345C300.206 241.345 302.487 242.066 304.489 243.868C304.604 243.802 304.719 243.72 304.833 243.655C304.866 242.328 304.899 240.952 304.932 239.641C304.932 238.101 305.014 236.561 305.03 235.07C304.965 234.955 304.915 234.857 304.866 234.742C302.044 233.202 298.614 232.645 295.841 232.645C292.756 232.645 287.801 233.137 283.895 237.986C281.335 241.23 279.284 246.457 279.087 253.452C278.956 258.236 279.826 262.922 282.14 266.33C286.357 272.719 293.134 272.998 296.694 272.998C300.6 272.998 304.423 272.457 308.017 271.13C308.082 271.015 308.148 270.917 308.214 270.802C307.935 266.788 307.705 263.807 307.492 260.071C307.278 256.172 307.278 254.517 307.246 252.862C307.147 252.748 307.065 252.649 306.967 252.535H306.95ZM325.197 272.015C324.131 264.478 323.31 256.991 322.523 249.438C321.669 241.181 321.341 236.561 321.128 233.579C321.029 233.464 320.914 233.366 320.8 233.251C316.287 233.464 315.253 233.464 310.905 233.415C310.806 233.53 310.724 233.628 310.642 233.743C311.069 237.659 311.446 241.558 311.939 248.39C312.513 256.319 313.022 264.249 313.481 272.162C313.579 272.261 313.678 272.342 313.776 272.441C318.42 272.277 319.684 272.211 324.951 272.277C325.033 272.179 325.115 272.097 325.197 271.998V272.015ZM360.378 271.851C360.313 271.966 360.247 272.064 360.165 272.179C355.571 272.228 354.553 272.293 349.417 272.392C349.286 272.31 349.171 272.211 349.04 272.113C347.809 268.427 347.005 266.215 345.709 262.693H337.176C336.864 265.773 336.651 268.853 336.52 271.949C336.421 272.064 336.323 272.162 336.241 272.277C331.974 272.277 330.481 272.277 326.494 272.392C326.395 272.31 326.297 272.211 326.198 272.113C326.904 268.591 327.051 267.755 327.97 261.382C328.43 258.318 328.873 255.254 329.283 252.191C329.71 249.389 330.087 246.637 330.432 243.819C330.612 242.393 331.4 235.283 331.548 233.628C331.63 233.53 331.712 233.448 331.81 233.35C337.767 233.35 338.702 233.35 343.543 233.186C343.658 233.301 343.789 233.399 343.887 233.514C344.166 234.234 344.429 234.939 344.757 235.66C348.63 245.129 348.941 245.785 351.468 251.683C352.847 254.91 354.274 258.154 355.685 261.382C356.637 263.528 358.147 267.001 359.115 269.148C359.295 269.524 360.165 271.409 360.362 271.851H360.378ZM342.87 254.943C342.148 252.895 341.442 250.831 340.737 248.783C339.375 244.703 339.079 243.72 338.21 240.69C338.16 243.606 338.144 244.49 337.832 249.225C337.668 251.159 337.521 253.075 337.34 255.009C339.227 255.058 341.048 255.009 342.853 254.943H342.87ZM373.604 261.103C377.165 265.347 379.019 267.542 382.793 272.113C382.958 272.228 383.105 272.326 383.269 272.441C387.388 272.277 388.159 272.277 392.212 272.277C392.294 272.162 392.36 272.064 392.442 271.949C391.49 268.869 390.227 264.953 388.11 257.696C386.994 253.895 382.153 237.003 381.152 233.579C381.021 233.464 380.89 233.366 380.759 233.251C378.281 233.301 376.886 233.366 373.391 233.415C373.325 233.53 373.26 233.628 373.194 233.743C373.719 235.349 375.77 242.443 376.213 243.868C377.116 246.964 378.018 250.077 378.921 253.174C376.525 250.438 374.162 247.702 371.849 244.966C366.122 238.035 365.17 236.774 362.873 233.514C362.725 233.415 362.561 233.333 362.413 233.235C358.606 233.399 357.474 233.399 353.667 233.399C353.601 233.514 353.519 233.612 353.454 233.727C354.258 237.151 355.062 240.558 355.817 243.966C356.522 247.374 358.836 258.056 359.689 262.234C360.592 266.592 361.1 269.279 361.626 272.097C361.757 272.211 361.888 272.31 362.019 272.424C366.154 272.261 366.466 272.261 370.634 272.261C370.733 272.146 370.831 272.048 370.946 271.933C369.272 265.887 369.141 265.543 367.467 258.99C366.745 256.319 366.023 253.632 365.301 250.946C368.025 254.321 370.798 257.696 373.637 261.071L373.604 261.103ZM413.495 271.998C410.804 265.117 407.965 257.024 405.52 250.094C404.125 246.129 403.239 243.491 402.468 241.279C404.831 241.328 405.75 241.328 409.13 241.443C409.179 241.328 409.245 241.214 409.311 241.115C408.113 237.642 407.883 236.872 406.899 233.579C406.767 233.464 406.652 233.366 406.537 233.251C405.143 233.301 402.845 233.301 401.057 233.366C399.203 233.366 397.414 233.415 395.609 233.415H383.548C383.483 233.53 383.417 233.628 383.351 233.743C384.319 237.167 384.598 238.265 385.353 241.23C385.468 241.345 385.583 241.46 385.698 241.558C386.682 241.509 387.683 241.509 388.766 241.443C390.063 241.443 391.326 241.443 392.557 241.378C392.984 242.705 400.515 266.477 402.107 272.146C402.222 272.244 402.353 272.326 402.468 272.424C407.292 272.261 408.277 272.261 413.265 272.261C413.347 272.162 413.413 272.08 413.495 271.982V271.998ZM430.577 242.721C430.068 241.46 429.576 240.182 429.067 238.92C428.509 237.544 428.017 236.168 427.508 234.791C427.394 234.66 427.262 234.529 427.147 234.398C425.999 233.907 422.996 232.58 418.713 232.58C415.021 232.58 412.543 233.563 411.378 235.774C410.426 237.642 410.279 240.558 411.739 244.474C414.119 250.798 418.451 253.387 421.634 255.271C422.553 255.779 423.472 256.303 424.391 256.811C427.049 258.351 428.985 259.449 429.806 261.431C430.15 262.25 430.938 265.232 427.065 265.232C423.357 265.232 420.518 263.413 419.517 262.758C419.419 262.807 419.32 262.873 419.205 262.922C419.616 264.134 420.059 265.347 420.469 266.559C420.961 268.001 421.388 269.426 421.814 270.852C421.979 271.015 422.159 271.179 422.323 271.343C425.113 272.506 428.345 273.047 431.365 273.047C435.319 273.047 439.225 272.326 440.783 268.918C441.67 266.936 441.637 263.954 439.979 260.219C437.272 254.108 433.219 251.912 427.033 248.39C423.849 246.637 422.028 245.359 421.257 243.491C420.485 241.574 421.536 240.345 423.472 240.362C426.261 240.362 428.395 241.738 430.216 242.885C430.331 242.836 430.429 242.77 430.544 242.721H430.577Z" fill="url(#paint10_linear_8595_113961)"/>
<path d="M185.506 184.822C185.227 185.576 184.997 186.33 184.751 187.149C183.734 190.163 179.155 205.269 178.072 208.644C177.629 210.102 177.137 211.544 176.694 213.002C176.464 213.755 176.038 215.148 175.545 216.95C179.155 216.95 182.749 216.836 186.376 216.606C186.458 216.721 186.54 216.836 186.622 216.95C185.358 220.555 185.03 221.538 183.865 225.322C183.717 225.437 183.57 225.552 183.422 225.666C178.04 225.683 172.657 225.699 167.275 225.732C165.257 225.732 163.895 225.797 161.401 225.846C161.319 225.732 161.253 225.617 161.171 225.502C162.828 220.686 163.534 218.654 165.191 213.657C166.012 211.216 169.966 199.256 170.869 196.52C171.427 194.882 171.968 193.227 172.526 191.589C173.593 188.394 173.954 187.345 174.627 185.019C174.758 184.904 174.906 184.789 175.053 184.675C179.992 184.675 181.387 184.675 185.309 184.495C185.375 184.609 185.44 184.724 185.506 184.839V184.822ZM224.314 184.822C223.345 189.41 222.82 192.26 220.31 205.089C220.113 206.039 219.916 206.989 219.719 207.939C218.291 215.197 217.717 218.113 214.944 221.243C210.399 226.42 203.786 226.42 201.308 226.42C198.83 226.42 189.542 226.42 189.231 217.999C189.132 215.623 189.789 212.953 191.216 207.595C191.43 206.776 191.643 205.973 191.873 205.154C192.89 201.14 193.054 200.567 194.547 194.931C195.68 190.688 196.237 188.427 197.058 185.002C197.173 184.888 197.288 184.773 197.402 184.658C201.882 184.658 202.965 184.658 207.79 184.478C207.855 184.593 207.904 184.708 207.97 184.822C206.017 192.424 204.212 200.042 202.424 207.644C201.209 212.822 200.717 215.083 201.587 216.655C202.21 217.819 203.31 217.982 204.114 217.982C208.019 217.982 209.02 213.624 209.906 209.447C211.334 203.286 212.729 196.782 214.041 190.622C214.534 188.296 214.665 187.722 215.19 184.986C215.321 184.871 215.453 184.757 215.567 184.642C219.735 184.642 220.786 184.576 224.051 184.462C224.133 184.576 224.215 184.691 224.297 184.806L224.314 184.822ZM249.813 215.312C249.19 219.195 249.059 220.014 248.451 224.716C248.369 224.814 248.271 224.913 248.189 225.011C246.384 225.83 243.414 226.404 239.64 226.404C235.866 226.404 230.139 226.059 226.496 221.357C223.329 217.294 223.149 211.478 224.166 205.728C224.822 201.894 226.676 193.997 232.403 188.59C236.883 184.347 241.478 183.823 244.94 183.823C246.384 183.823 250.158 183.938 252.734 185.445C252.783 185.559 252.849 185.674 252.915 185.789C252.587 187.476 252.308 189.164 252.094 190.786C251.832 192.244 251.635 193.686 251.438 195.144C251.323 195.209 251.208 195.258 251.093 195.308C250.322 194.554 248.698 192.932 245.793 192.932C242.216 192.932 240.296 195.029 239.295 196.356C237.933 198.158 236.653 201.058 236.046 205.236C235.423 209.594 236.046 213.362 237.868 215.345C239.508 217.032 241.51 217.262 243.102 217.262C245.924 217.262 247.664 216.442 249.485 215.164C249.6 215.214 249.699 215.246 249.813 215.279V215.312ZM265.533 225.65C260.742 225.584 259.347 225.584 254.244 225.83C254.162 225.715 254.063 225.601 253.981 225.486C254.392 221.423 255.13 214.968 255.786 207.431C256.049 204.581 257.116 192.096 257.378 185.002C257.477 184.888 257.575 184.773 257.657 184.658C262.137 184.658 263.482 184.658 267.765 184.478C267.847 184.593 267.929 184.708 267.995 184.822C267.962 185.461 267.388 193.768 267.322 194.931C267.125 197.421 266.928 199.928 266.731 202.418C268.996 198.257 271.178 194.095 273.295 189.934C274.542 187.493 274.706 187.083 275.559 185.002C275.691 184.888 275.806 184.773 275.937 184.658C280.581 184.593 281.303 184.593 285.569 184.478C285.618 184.593 285.684 184.708 285.717 184.822C283.797 188.083 283.091 189.295 281.483 192.195C279.695 195.291 277.857 198.388 275.97 201.484C277.233 204.564 278.529 207.644 279.859 210.725C281.024 213.346 282.944 217.524 284.174 220.129C284.962 221.751 285.815 223.373 286.685 225.011C286.619 225.126 286.57 225.24 286.504 225.355C280.384 225.584 278.349 225.65 273.886 225.879C273.754 225.765 273.623 225.65 273.492 225.535C273.279 225.011 273.131 224.552 272.918 224.028C271.014 218.458 270.817 217.819 269.57 214.329C268.536 211.675 267.535 209.021 266.551 206.367C265.944 218.048 265.845 220.718 265.878 225.306C265.747 225.421 265.632 225.535 265.517 225.65H265.533ZM297.302 203.172C297.498 205.99 297.679 208.824 297.892 211.642C298.27 218.556 298.335 218.9 298.828 225.289C298.696 225.404 298.565 225.519 298.434 225.634C294.036 225.634 293.692 225.634 289.294 225.814C289.179 225.699 289.064 225.584 288.949 225.47C288.999 222.504 289.031 219.67 288.999 215.083C288.966 210.659 288.802 199.404 288.769 195.799C288.703 192.195 288.572 188.607 288.457 185.002C288.555 184.888 288.67 184.773 288.769 184.658C292.789 184.658 293.971 184.658 298.04 184.478C298.188 184.576 298.319 184.675 298.467 184.773C300.206 188.197 300.928 189.541 305.506 196.848C307.36 199.731 309.28 202.615 311.217 205.498C310.921 202.221 310.626 198.961 310.33 195.684C310.166 194.177 309.51 186.674 309.297 185.002C309.395 184.888 309.494 184.773 309.576 184.658C313.284 184.593 314.777 184.544 317.386 184.478C317.501 184.593 317.616 184.708 317.731 184.822C318.059 188.427 319.602 206.252 319.963 210.266C320.668 217.933 321.161 222.046 321.522 225.306C321.407 225.421 321.308 225.535 321.21 225.65C316.927 225.65 316.123 225.65 311.742 225.83C311.594 225.715 311.463 225.601 311.315 225.486C308.296 220.669 306.803 218.343 303.947 213.87C301.666 210.315 299.451 206.743 297.302 203.188V203.172ZM347.727 188.296C353.273 193.637 355.16 202.353 355.735 205.433C356.227 207.988 356.572 210.544 356.49 213.1C356.457 215.836 355.932 218.441 354.635 220.653C351.271 226.338 344.544 226.404 342.657 226.404C340.77 226.404 334.255 226.338 329.201 220.768C326.641 217.868 324.344 213.1 323.589 205.662C323.245 202.467 322.588 193.751 326.494 188.41C329.628 184.118 334.124 183.823 336.437 183.823C338.341 183.823 343.198 183.938 347.727 188.296ZM342.099 196.143C341.754 195.39 340.409 192.195 337.734 192.195C336.897 192.195 336.109 192.604 335.568 193.243C334.665 194.341 334.206 196.438 334.419 200.387C334.501 201.779 334.665 203.467 334.944 205.384C335.158 206.956 335.437 208.529 335.732 210.036C336.142 211.773 337.012 215.377 339.112 216.999C339.818 217.524 340.704 217.868 341.508 217.868C342.361 217.868 343.1 217.524 343.641 216.999C345.151 215.492 345.069 212.117 344.937 210.036C344.806 208.464 344.593 206.907 344.347 205.334C344.166 204.237 343.264 199.01 342.115 196.16L342.099 196.143ZM378.888 199.453C379.069 201.288 379.249 203.139 379.413 204.974C380.102 211.773 380.759 218.507 381.317 225.306C381.202 225.421 381.103 225.535 381.005 225.65C379.38 225.584 377.756 225.584 376.131 225.584C373.522 225.584 371.586 225.65 368.255 225.814C368.124 225.699 367.976 225.584 367.845 225.47C367.566 224.716 367.238 224.012 366.959 223.258C365.186 219.015 365.039 218.556 363.365 214.378C362.101 211.216 360.854 208.07 359.624 204.908C358.524 202.238 357.507 199.617 356.44 196.946C353.421 189.279 353.109 188.41 351.796 185.101C351.862 184.986 351.928 184.871 351.977 184.757C356.49 184.642 357.31 184.642 361.872 184.298C361.987 184.413 362.101 184.527 362.216 184.642C363.48 188.41 365.17 193.112 366.794 197.356C368.452 201.779 370.093 206.235 371.766 210.708C372.259 212.068 372.767 213.411 373.293 214.771C373.21 213.477 373.128 212.183 373.03 210.872C372.045 199.207 371.849 197.11 370.503 184.97C370.585 184.855 370.651 184.74 370.733 184.626C375.836 184.626 376.903 184.56 381.333 184.445C381.448 184.56 381.579 184.675 381.694 184.789C387.191 198.093 388.11 200.059 392.458 209.889C393.131 211.462 393.82 213.018 394.51 214.591C393.623 209.184 393.279 206.809 392.097 197.929C391.031 190.196 390.785 188.918 390.03 184.97C390.096 184.855 390.161 184.74 390.227 184.626C394.083 184.56 394.903 184.56 398.678 184.445C398.792 184.56 398.891 184.675 399.006 184.789C399.153 185.838 399.301 186.887 399.383 187.935C400.023 192.637 400.909 200.19 401.385 204.892C401.762 208.12 402.107 211.363 402.452 214.591C402.731 217.556 403.19 222.308 403.42 225.273C403.338 225.388 403.272 225.502 403.19 225.617C401.5 225.552 399.875 225.552 398.202 225.552C395.773 225.552 393.591 225.617 390.178 225.781C390.03 225.666 389.882 225.552 389.735 225.437C389.095 223.93 386.092 216.492 385.419 214.804C384.402 212.297 383.368 209.873 382.334 207.431C381.202 204.761 380.07 202.09 378.954 199.42L378.888 199.453Z" fill="url(#paint11_linear_8595_113961)"/>
<path d="M237.08 197.487C233.765 197.765 230.483 198.06 227.218 198.404C226.184 201.058 225.544 203.68 225.167 205.908C224.018 212.412 224.724 217.36 227.284 220.62C230.418 224.683 235.226 225.224 239.508 225.224C242.593 225.224 245.383 224.814 247.221 224.077C247.647 220.718 247.844 219.408 248.189 217.229C246.745 217.966 245.137 218.408 242.954 218.408C241.297 218.408 238.885 218.163 236.883 216.115C234.848 213.903 234.077 209.873 234.766 205.056C235.258 201.615 236.161 199.174 237.08 197.47V197.487Z" fill="url(#paint12_linear_8595_113961)"/>
<path d="M202.522 201.599C199.454 202.074 196.418 202.582 193.431 203.123C193.267 203.778 193.07 204.515 192.841 205.433L192.184 207.874C190.724 213.329 190.15 215.771 190.232 217.933C190.412 222.848 193.973 225.24 201.144 225.24C203.49 225.24 209.709 225.24 213.91 220.456C216.503 217.54 217.011 214.853 218.423 207.694L219.013 204.859L220.113 199.191C217.733 199.469 215.371 199.764 213.04 200.075C212.335 203.303 211.613 206.53 210.891 209.676C209.988 213.887 208.873 219.129 203.966 219.129C201.915 219.129 200.914 218.081 200.438 217.212C199.306 215.181 199.929 212.576 201.144 207.382C201.603 205.416 202.063 203.499 202.506 201.615L202.522 201.599Z" fill="url(#paint13_linear_8595_113961)"/>
<path d="M395.511 214.411L393.312 215.05C392.623 213.477 391.933 211.921 391.261 210.348L390.194 207.956C390.112 207.775 390.03 207.595 389.948 207.415C387.552 206.858 385.14 206.317 382.679 205.793C382.859 206.186 383.023 206.596 383.187 206.989L383.515 207.759C384.434 209.905 385.386 212.134 386.289 214.394C387.027 216.246 389.587 222.603 390.44 224.618C393.476 224.47 395.576 224.405 398.005 224.405C399.367 224.405 400.663 224.405 402.009 224.438C401.845 222.373 401.598 219.752 401.369 217.393L401.122 214.706C400.958 213.182 400.794 211.642 400.63 210.102C398.628 209.561 396.626 209.037 394.575 208.529C394.854 210.413 395.133 212.134 395.494 214.394L395.511 214.411Z" fill="url(#paint14_linear_8595_113961)"/>
<path d="M167.128 224.536L182.765 224.487C183.652 221.603 184.029 220.407 184.932 217.819C181.748 217.999 178.565 218.081 175.398 218.081H173.888L174.282 216.623C174.741 214.919 175.152 213.592 175.431 212.641C175.66 211.888 175.906 211.134 176.153 210.38C176.366 209.676 176.612 208.988 176.825 208.267C176.973 207.808 177.186 207.12 177.433 206.301C174.216 207.005 171.049 207.743 167.948 208.513C167.128 210.987 166.422 213.1 166.127 213.968C164.617 218.474 163.928 220.555 162.517 224.618H163.074C164.535 224.569 165.651 224.536 167.111 224.536H167.128Z" fill="url(#paint15_linear_8595_113961)"/>
<path d="M284.847 224.241C284.223 223.061 283.6 221.833 283.009 220.604C281.795 218.048 279.891 213.903 278.677 211.167C277.348 208.07 276.035 204.941 274.788 201.91L274.558 201.37L274.854 200.878C275.904 199.158 276.921 197.437 277.939 195.701C275.756 195.701 273.59 195.734 271.424 195.783C270.177 198.175 268.897 200.567 267.601 202.959L265.435 202.32L265.944 195.914C263.187 195.996 260.43 196.094 257.706 196.209C257.345 201.042 256.968 205.564 256.787 207.513C256.279 213.248 255.737 218.458 255.327 222.258C255.245 223.094 255.163 223.897 255.081 224.618C257.92 224.503 259.511 224.454 261.464 224.454C262.366 224.454 263.367 224.454 264.582 224.47C264.582 220.374 264.68 217.343 265.254 206.301L267.486 205.957C268.471 208.578 269.472 211.249 270.522 213.919C271.359 216.279 271.72 217.327 272.442 219.473C272.786 220.505 273.229 221.816 273.836 223.569C273.951 223.848 274.05 224.11 274.148 224.372C274.181 224.47 274.214 224.569 274.263 224.683C277.446 224.519 279.432 224.454 282.894 224.323L284.814 224.257L284.847 224.241Z" fill="url(#paint16_linear_8595_113961)"/>
<path d="M360.559 204.482C361.79 207.628 363.037 210.79 364.284 213.936C364.76 215.115 365.104 216 365.4 216.754C366.171 218.703 366.598 219.768 367.877 222.848C368.009 223.209 368.156 223.569 368.304 223.913C368.403 224.143 368.501 224.372 368.583 224.618C371.553 224.47 373.473 224.405 375.951 224.405C377.247 224.405 378.576 224.405 379.905 224.438C379.331 217.655 378.675 210.888 378.084 205.056C378.084 204.99 378.084 204.908 378.068 204.843C376.525 204.532 374.966 204.22 373.407 203.925C373.571 205.859 373.768 208.054 373.998 210.79C374.08 212.084 374.179 213.395 374.261 214.689L372.029 215.164C371.52 213.805 371.012 212.445 370.503 211.101C369.896 209.463 369.289 207.825 368.682 206.203C368.271 205.089 367.845 203.958 367.434 202.844C364.76 202.369 362.069 201.927 359.345 201.501C359.739 202.484 360.132 203.467 360.543 204.466L360.559 204.482Z" fill="url(#paint17_linear_8595_113961)"/>
<path d="M324.524 197.421C324.262 199.846 324.295 202.582 324.607 205.531C325.246 211.757 327.084 216.754 329.923 219.981C333.074 223.471 337.307 225.24 342.509 225.24C347.776 225.24 351.468 223.487 353.503 220.063C354.602 218.212 355.177 215.869 355.21 213.067C355.259 210.905 355.029 208.562 354.455 205.646C354.127 203.86 353.716 202.189 353.224 200.616C350.238 200.19 347.218 199.797 344.166 199.42C344.855 202.189 345.298 204.958 345.331 205.138C345.61 206.825 345.807 208.398 345.938 209.954C346.103 212.871 346.037 216.066 344.281 217.819C343.477 218.589 342.443 219.015 341.344 219.015C340.327 219.015 339.178 218.605 338.243 217.9C336.044 216.197 335.059 212.936 334.436 210.249C334.107 208.677 333.828 207.087 333.632 205.531C333.369 203.68 333.205 201.976 333.106 200.436C333.057 199.616 333.057 198.896 333.057 198.191C330.235 197.913 327.363 197.65 324.492 197.421H324.524Z" fill="url(#paint18_linear_8595_113961)"/>
<path d="M289.786 195.783C289.786 197.536 289.852 201.124 289.885 204.843C289.934 208.742 289.983 212.805 290 215.066C290.016 219.228 290 221.947 289.95 224.634C293.314 224.503 294.069 224.503 297.433 224.503L297.252 222.258C296.973 218.654 296.859 217.294 296.563 211.74C296.366 208.906 296.169 206.088 295.972 203.254L298.122 202.582C300.239 206.088 302.47 209.676 304.751 213.248L305.621 214.624C307.902 218.195 309.379 220.489 311.988 224.667C315.68 224.519 316.697 224.519 320.11 224.519L320.028 223.749C319.684 220.653 319.241 216.803 318.666 210.397C318.486 208.48 318.043 203.352 317.583 198.158C317.551 197.765 317.518 197.356 317.485 196.962C315.467 196.831 313.448 196.7 311.413 196.586C311.676 199.535 311.939 202.484 312.218 205.433L310.101 206.186C308.148 203.286 306.212 200.37 304.358 197.503C304.079 197.061 303.816 196.618 303.554 196.209C299.008 196.029 294.397 195.897 289.77 195.816L289.786 195.783Z" fill="url(#paint19_linear_8595_113961)"/>
</g>
<defs>
<linearGradient id="paint0_linear_8595_113961" x1="324.393" y1="118.584" x2="522.911" y2="118.584" gradientUnits="userSpaceOnUse">
<stop stop-color="#B2B2B2"/>
<stop offset="1" stop-color="#EDEDED"/>
</linearGradient>
<linearGradient id="paint1_linear_8595_113961" x1="325.821" y1="84.6371" x2="547.312" y2="84.6371" gradientUnits="userSpaceOnUse">
<stop stop-color="#A3195B"/>
<stop offset="0.06" stop-color="#B2364B"/>
<stop offset="0.16" stop-color="#C65E37"/>
<stop offset="0.26" stop-color="#D88026"/>
<stop offset="0.37" stop-color="#E69B18"/>
<stop offset="0.49" stop-color="#F1B10D"/>
<stop offset="0.62" stop-color="#F9C005"/>
<stop offset="0.77" stop-color="#FDC901"/>
<stop offset="1" stop-color="#FFCC00"/>
</linearGradient>
<linearGradient id="paint2_linear_8595_113961" x1="305.818" y1="87.4387" x2="555.943" y2="87.4387" gradientUnits="userSpaceOnUse">
<stop stop-color="#A3195B"/>
<stop offset="0.04" stop-color="#AA2451"/>
<stop offset="0.15" stop-color="#C14638"/>
<stop offset="0.28" stop-color="#D36124"/>
<stop offset="0.41" stop-color="#E17714"/>
<stop offset="0.56" stop-color="#EB8608"/>
<stop offset="0.74" stop-color="#F18F02"/>
<stop offset="1" stop-color="#F39200"/>
</linearGradient>
<linearGradient id="paint3_linear_8595_113961" x1="323.261" y1="144.568" x2="496.985" y2="144.568" gradientUnits="userSpaceOnUse">
<stop stop-color="#3AAA35"/>
<stop offset="0.08" stop-color="#46AD31"/>
<stop offset="0.34" stop-color="#68B529"/>
<stop offset="0.59" stop-color="#81BB23"/>
<stop offset="0.81" stop-color="#8FBF1F"/>
<stop offset="1" stop-color="#95C11E"/>
</linearGradient>
<linearGradient id="paint4_linear_8595_113961" x1="306.606" y1="170.438" x2="453.156" y2="170.438" gradientUnits="userSpaceOnUse">
<stop stop-color="#006633"/>
<stop offset="1" stop-color="#3AAA35"/>
</linearGradient>
<linearGradient id="paint5_linear_8595_113961" x1="239.607" y1="118.584" x2="41.105" y2="118.584" gradientUnits="userSpaceOnUse">
<stop stop-color="#B2B2B2"/>
<stop offset="1" stop-color="#EDEDED"/>
</linearGradient>
<linearGradient id="paint6_linear_8595_113961" x1="238.179" y1="84.6371" x2="16.7046" y2="84.6371" gradientUnits="userSpaceOnUse">
<stop stop-color="#A3195B"/>
<stop offset="0.06" stop-color="#B2364B"/>
<stop offset="0.16" stop-color="#C65E37"/>
<stop offset="0.26" stop-color="#D88026"/>
<stop offset="0.37" stop-color="#E69B18"/>
<stop offset="0.49" stop-color="#F1B10D"/>
<stop offset="0.62" stop-color="#F9C005"/>
<stop offset="0.77" stop-color="#FDC901"/>
<stop offset="1" stop-color="#FFCC00"/>
</linearGradient>
<linearGradient id="paint7_linear_8595_113961" x1="258.198" y1="2.22789e-07" x2="8.14259" y2="87.6831" gradientUnits="userSpaceOnUse">
<stop stop-color="#A3195B"/>
<stop offset="0.04" stop-color="#AA2451"/>
<stop offset="0.15" stop-color="#C14638"/>
<stop offset="0.28" stop-color="#D36124"/>
<stop offset="0.41" stop-color="#E17714"/>
<stop offset="0.56" stop-color="#EB8608"/>
<stop offset="0.74" stop-color="#F18F02"/>
<stop offset="1" stop-color="#F39200"/>
</linearGradient>
<linearGradient id="paint8_linear_8595_113961" x1="240.756" y1="-1.67662e-05" x2="67.2547" y2="144.835" gradientUnits="userSpaceOnUse">
<stop stop-color="#3AAA35"/>
<stop offset="0.08" stop-color="#46AD31"/>
<stop offset="0.34" stop-color="#68B529"/>
<stop offset="0.59" stop-color="#81BB23"/>
<stop offset="0.81" stop-color="#8FBF1F"/>
<stop offset="1" stop-color="#95C11E"/>
</linearGradient>
<linearGradient id="paint9_linear_8595_113961" x1="257.001" y1="170.438" x2="109.088" y2="170.438" gradientUnits="userSpaceOnUse">
<stop stop-color="#006633"/>
<stop offset="1" stop-color="#3AAA35"/>
</linearGradient>
<linearGradient id="paint10_linear_8595_113961" x1="282.271" y1="273.047" x2="282.271" y2="232.58" gradientUnits="userSpaceOnUse">
<stop stop-color="#2B3087"/>
<stop offset="0.3" stop-color="#203A9F"/>
<stop offset="0.35" stop-color="#1A3EA9"/>
<stop offset="0.48" stop-color="#0F48C2"/>
<stop offset="0.61" stop-color="#0750D3"/>
<stop offset="0.75" stop-color="#0254DD"/>
<stop offset="0.93" stop-color="#0156E1"/>
</linearGradient>
<linearGradient id="paint11_linear_8595_113961" x1="282.271" y1="226.404" x2="282.271" y2="183.839" gradientUnits="userSpaceOnUse">
<stop stop-color="#2B3087"/>
<stop offset="0.3" stop-color="#203A9F"/>
<stop offset="0.35" stop-color="#1A3EA9"/>
<stop offset="0.48" stop-color="#0F48C2"/>
<stop offset="0.61" stop-color="#0750D3"/>
<stop offset="0.75" stop-color="#0254DD"/>
<stop offset="0.93" stop-color="#0156E1"/>
</linearGradient>
<linearGradient id="paint12_linear_8595_113961" x1="236.407" y1="197.487" x2="236.407" y2="225.24" gradientUnits="userSpaceOnUse">
<stop stop-color="#36A9E1"/>
<stop offset="0.78" stop-color="#2581C4" stop-opacity="0"/>
</linearGradient>
<linearGradient id="paint13_linear_8595_113961" x1="205.193" y1="199.176" x2="205.193" y2="225.211" gradientUnits="userSpaceOnUse">
<stop stop-color="#36A9E1"/>
<stop offset="0.78" stop-color="#2581C4" stop-opacity="0"/>
</linearGradient>
<linearGradient id="paint14_linear_8595_113961" x1="392.344" y1="205.809" x2="392.344" y2="224.634" gradientUnits="userSpaceOnUse">
<stop stop-color="#36A9E1"/>
<stop offset="0.78" stop-color="#2581C4" stop-opacity="0"/>
</linearGradient>
<linearGradient id="paint15_linear_8595_113961" x1="173.74" y1="206.301" x2="173.74" y2="224.618" gradientUnits="userSpaceOnUse">
<stop stop-color="#36A9E1"/>
<stop offset="0.78" stop-color="#2581C4" stop-opacity="0"/>
</linearGradient>
<linearGradient id="paint16_linear_8595_113961" x1="269.964" y1="195.701" x2="269.964" y2="224.683" gradientUnits="userSpaceOnUse">
<stop stop-color="#36A9E1"/>
<stop offset="0.78" stop-color="#2581C4" stop-opacity="0"/>
</linearGradient>
<linearGradient id="paint17_linear_8595_113961" x1="369.65" y1="201.517" x2="369.65" y2="224.634" gradientUnits="userSpaceOnUse">
<stop stop-color="#36A9E1"/>
<stop offset="0.78" stop-color="#2581C4" stop-opacity="0"/>
</linearGradient>
<linearGradient id="paint18_linear_8595_113961" x1="339.807" y1="197.405" x2="339.807" y2="225.209" gradientUnits="userSpaceOnUse">
<stop stop-color="#36A9E1"/>
<stop offset="0.78" stop-color="#2581C4" stop-opacity="0"/>
</linearGradient>
<linearGradient id="paint19_linear_8595_113961" x1="304.965" y1="195.766" x2="304.965" y2="224.634" gradientUnits="userSpaceOnUse">
<stop stop-color="#36A9E1"/>
<stop offset="0.78" stop-color="#2581C4" stop-opacity="0"/>
</linearGradient>
<clipPath id="clip0_8595_113961">
<rect width="564" height="324" fill="white"/>
</clipPath>
</defs>
</svg>
