<?xml version="1.0" standalone="no"?>
<!DOCTYPE svg PUBLIC "-//W3C//DTD SVG 20010904//EN"
 "http://www.w3.org/TR/2001/REC-SVG-20010904/DTD/svg10.dtd">
<svg version="1.0" xmlns="http://www.w3.org/2000/svg"
 width="1024.000000pt" height="1024.000000pt" viewBox="0 0 1024.000000 1024.000000"
 preserveAspectRatio="xMidYMid meet">
<metadata>
Created by potrace 1.14, written by Peter Selinger 2001-2017
</metadata>
<g transform="translate(0.000000,1024.000000) scale(0.100000,-0.100000)"
fill="#000000" stroke="none">
<path d="M5058 7684 c-57 -30 -78 -108 -46 -172 l21 -44 46 46 46 45 44 -45
45 -44 18 29 c22 35 26 88 8 130 -25 62 -118 90 -182 55z"/>
<path d="M700 7526 c0 -16 35 -63 74 -96 131 -114 466 -270 868 -404 252 -84
826 -271 1168 -379 113 -36 279 -89 370 -118 91 -29 167 -54 170 -54 4 -1 304
-96 377 -120 7 -2 26 -31 42 -63 77 -153 201 -268 374 -347 102 -46 268 -87
355 -87 12 0 24 -3 26 -7 2 -3 7 -42 10 -86 4 -44 9 -91 11 -105 3 -14 7 -56
10 -95 3 -38 8 -89 10 -112 9 -83 14 -129 21 -198 3 -38 8 -73 10 -76 1 -3 29
-5 61 -5 l58 1 1 35 c9 209 18 960 12 965 -2 3 -69 5 -148 6 -163 1 -231 15
-302 60 -52 34 -90 79 -118 142 -26 58 -30 87 -31 195 0 50 -1 92 -3 92 -1 0
-101 25 -222 56 -120 31 -228 58 -238 60 -10 2 -33 8 -50 13 -17 6 -157 42
-311 81 -154 39 -395 101 -535 137 -140 36 -262 67 -270 69 -8 2 -60 15 -115
29 -55 14 -206 53 -335 86 -129 33 -314 81 -410 105 -96 25 -182 47 -190 49
-17 4 -537 136 -649 166 -89 23 -101 23 -101 5z"/>
<path d="M9464 7527 c-16 -4 -36 -10 -44 -12 -8 -2 -105 -26 -215 -54 -110
-29 -207 -53 -215 -55 -197 -50 -748 -191 -940 -241 -140 -36 -263 -68 -273
-70 -10 -2 -27 -7 -37 -10 -10 -3 -27 -7 -37 -9 -10 -2 -124 -31 -253 -64
-129 -34 -343 -88 -475 -122 -132 -34 -307 -79 -390 -100 -82 -21 -206 -53
-275 -70 -69 -17 -142 -36 -162 -41 l-37 -9 0 -96 c-1 -193 -68 -309 -215
-367 -42 -17 -79 -21 -221 -25 l-170 -4 1 -61 c5 -193 16 -886 15 -908 -1 -32
7 -36 74 -35 l50 1 7 55 c4 30 9 89 13 130 3 41 8 89 10 105 3 17 7 53 9 80
20 221 29 301 32 304 5 6 17 8 92 15 111 11 243 54 352 113 141 76 244 182
314 321 15 29 32 55 39 57 7 2 113 36 237 75 423 135 1272 407 1325 425 22 7
155 50 295 96 636 204 988 364 1124 509 68 73 59 93 -30 67z"/>
<path d="M5075 7414 c-38 -43 -54 -94 -30 -94 5 0 25 16 42 35 18 19 34 35 37
35 2 0 23 -19 45 -42 l41 -41 0 35 c0 27 -9 44 -41 76 -22 23 -44 42 -47 42
-4 0 -25 -21 -47 -46z"/>
<path d="M5083 7258 c-38 -39 -65 -108 -43 -108 5 0 25 18 46 40 l38 40 40
-40 c22 -22 43 -40 46 -40 3 0 4 15 2 34 -3 23 -17 46 -46 75 l-42 41 -41 -42z"/>
<path d="M834 7188 c30 -145 42 -189 67 -249 73 -179 184 -301 348 -384 42
-21 296 -104 366 -119 6 -2 44 -13 85 -25 187 -57 583 -175 660 -198 101 -29
142 -41 280 -83 58 -17 149 -45 203 -61 233 -70 467 -140 592 -177 55 -17 237
-71 405 -122 168 -50 343 -103 390 -117 47 -13 104 -31 128 -39 23 -8 45 -14
48 -14 3 0 3 26 0 58 -3 31 -5 60 -5 64 -1 5 -4 7 -8 6 -16 -4 -100 15 -178
39 -165 52 -315 141 -419 249 -49 51 -146 186 -146 203 0 11 -29 20 -675 226
-115 37 -277 89 -360 115 -1048 338 -1114 360 -1335 447 -91 35 -227 96 -303
134 -77 38 -141 69 -143 69 -2 0 -2 -10 0 -22z"/>
<path d="M9270 7144 c-151 -77 -422 -186 -660 -264 -259 -86 -868 -283 -1335
-431 -121 -39 -231 -74 -245 -79 -14 -5 -113 -37 -220 -70 -212 -67 -206 -63
-273 -168 -72 -113 -188 -215 -328 -290 -97 -52 -288 -113 -356 -115 -7 0 -13
-3 -14 -6 -11 -117 -11 -123 8 -117 37 11 760 229 806 242 140 41 176 52 652
195 110 34 236 71 280 84 167 49 1165 347 1260 376 272 84 435 242 519 503 23
70 46 208 35 205 -2 0 -60 -30 -129 -65z"/>
<path d="M5081 7090 c-31 -30 -43 -49 -46 -76 l-3 -36 48 47 c45 44 48 46 62
28 7 -10 27 -30 44 -46 l30 -27 -2 29 c-2 32 -23 64 -64 98 l-27 22 -42 -39z"/>
<path d="M5079 6927 c-36 -34 -45 -50 -45 -75 l0 -33 41 41 c22 22 46 40 52
40 6 0 24 -15 40 -33 44 -50 53 -53 50 -16 -2 30 -17 51 -74 101 -18 17 -21
16 -64 -25z"/>
<path d="M5077 6765 c-38 -35 -47 -50 -47 -76 l0 -33 43 42 c45 44 61 50 74
30 5 -7 23 -26 41 -42 l32 -30 -4 31 c-3 34 -25 67 -66 100 l-27 22 -46 -44z"/>
<path d="M5077 6606 c-38 -35 -47 -49 -47 -76 l0 -34 43 42 c23 23 47 42 52
42 5 0 29 -19 53 -42 l43 -43 -4 38 c-4 35 -11 44 -73 99 -19 17 -22 16 -67
-26z"/>
<path d="M5077 6446 c-37 -35 -47 -51 -47 -76 l0 -33 45 42 c24 22 47 41 50
41 3 0 26 -19 50 -41 l45 -42 0 32 c0 18 -6 38 -13 44 -7 7 -29 27 -48 44
l-35 33 -47 -44z"/>
<path d="M5224 6235 c2 -104 -10 -140 -56 -159 -38 -16 -93 -6 -121 23 -18 18
-21 34 -21 117 -1 69 -4 91 -11 79 -35 -59 -76 -88 -143 -100 -13 -2 -27 -7
-30 -10 -3 -3 -6 -51 -7 -107 -2 -57 -6 -260 -10 -453 -4 -192 -8 -446 -9
-563 l-1 -213 248 0 c136 0 276 1 313 1 l65 0 -6 238 c-3 130 -7 357 -10 504
-8 392 -14 590 -18 595 -3 2 -14 6 -26 8 -70 13 -126 51 -146 99 -13 29 -14
24 -11 -59z"/>
<path d="M1236 6288 c74 -238 305 -444 547 -489 83 -15 93 -17 162 -28 33 -6
139 -24 235 -41 96 -17 190 -33 209 -36 18 -3 43 -8 55 -10 24 -5 488 -83 526
-89 14 -2 120 -19 235 -39 116 -19 239 -40 275 -45 36 -5 151 -23 255 -40 105
-17 208 -33 230 -36 22 -4 49 -8 60 -9 11 -2 70 -11 130 -21 61 -9 145 -23
187 -30 43 -6 80 -10 83 -7 7 7 4 92 -4 121 -6 23 -23 29 -216 78 -116 29
-219 55 -230 57 -11 2 -189 47 -395 99 -206 53 -645 164 -975 247 -330 83
-768 194 -973 246 -206 52 -380 94 -388 94 -11 0 -13 -6 -8 -22z"/>
<path d="M8855 6279 c-60 -16 -146 -38 -190 -48 -44 -11 -357 -90 -695 -176
-338 -86 -622 -158 -630 -160 -8 -2 -240 -60 -515 -130 -275 -69 -507 -128
-515 -129 -8 -2 -116 -29 -239 -61 -124 -31 -229 -57 -235 -58 -14 -3 -23 -40
-25 -103 l-1 -51 53 8 c28 4 113 17 187 29 74 11 180 28 235 36 55 8 152 23
215 34 63 10 133 21 155 25 22 3 67 10 100 16 33 6 76 13 95 15 19 3 60 9 90
14 30 5 71 12 90 15 19 3 47 8 63 10 15 3 39 7 55 10 15 2 97 16 182 30 85 14
166 28 180 30 24 4 320 54 350 60 8 1 35 6 60 10 25 4 54 9 65 11 11 2 61 11
110 20 50 8 101 17 115 19 14 3 90 16 170 31 124 21 159 32 245 74 180 86 324
249 379 428 10 29 -8 28 -149 -9z"/>
<path d="M1657 5623 c25 -68 134 -202 224 -275 132 -108 226 -138 449 -143
216 -5 1493 -24 1955 -28 l160 -2 0 63 c0 35 -2 65 -5 67 -3 1 -32 5 -65 9
-33 4 -76 8 -95 11 -19 2 -57 7 -85 10 -27 4 -61 8 -75 10 -14 2 -52 7 -85 10
-33 3 -73 8 -90 10 -16 2 -50 6 -75 9 -25 3 -119 14 -210 25 -91 11 -190 23
-220 27 -30 3 -66 8 -80 9 -14 2 -52 6 -85 9 -33 4 -71 9 -85 11 -14 3 -53 7
-88 10 -35 4 -72 8 -83 10 -11 2 -48 7 -82 10 -34 3 -73 8 -87 10 -14 2 -52 7
-85 10 -33 3 -71 8 -85 10 -49 7 -106 15 -160 20 -30 3 -89 10 -130 15 -41 5
-101 12 -133 15 -32 4 -67 8 -77 10 -10 2 -50 7 -87 10 -37 4 -75 9 -83 10 -8
2 -46 6 -85 10 -38 4 -78 9 -87 11 -9 1 -48 6 -85 9 -37 4 -76 9 -85 11 -14 4
-16 1 -11 -13z"/>
<path d="M8547 5634 c-1 -1 -29 -5 -61 -8 -33 -4 -73 -8 -90 -11 -57 -7 -121
-14 -181 -20 -33 -4 -67 -8 -75 -10 -8 -2 -46 -7 -85 -11 -38 -3 -79 -8 -90
-10 -11 -2 -42 -6 -70 -9 -112 -12 -142 -16 -185 -21 -92 -11 -174 -21 -275
-33 -44 -6 -105 -13 -135 -16 -30 -3 -66 -8 -80 -10 -23 -3 -74 -9 -170 -20
-19 -2 -60 -7 -90 -10 -30 -4 -68 -8 -85 -10 -107 -12 -143 -17 -165 -20 -23
-3 -54 -7 -175 -21 -22 -2 -56 -6 -75 -9 -19 -2 -60 -7 -90 -10 -30 -3 -86
-10 -125 -15 -76 -10 -141 -18 -220 -26 -27 -3 -61 -7 -75 -9 -14 -3 -52 -8
-85 -11 -33 -3 -62 -7 -63 -9 -10 -9 -13 -118 -4 -124 6 -3 55 -6 109 -5 54 1
343 5 643 8 602 8 1046 14 1335 21 218 4 280 18 394 86 76 47 126 90 197 174
47 56 114 154 114 168 0 5 -38 6 -43 1z"/>
<path d="M2648 5094 c-2 -2 -75 -4 -161 -5 -173 -1 -174 -1 -134 -60 53 -79
186 -144 342 -168 33 -5 500 -10 1038 -10 l977 -1 1 72 c1 129 1 153 0 164 -1
8 -277 11 -1030 12 -567 0 -1032 -2 -1033 -4z"/>
<path d="M5526 5092 c-3 -3 -6 -59 -6 -124 l0 -119 1008 4 c988 3 1008 4 1080
24 106 31 178 70 228 126 46 51 56 85 27 87 -89 4 -2333 7 -2337 2z"/>
<path d="M4431 4738 c-69 -20 -138 -82 -185 -168 -55 -101 -84 -291 -57 -379
14 -45 53 -94 96 -121 45 -28 169 -38 243 -20 l50 12 7 51 c4 29 9 64 11 80 5
31 -1 33 -42 13 -41 -21 -109 -14 -139 14 -51 48 -52 185 0 293 35 75 124 104
188 62 27 -17 27 -17 28 6 0 13 2 31 4 39 1 8 6 34 9 58 7 42 6 43 -28 57 -39
17 -133 18 -185 3z"/>
<path d="M5925 4740 c-42 -13 -84 -55 -108 -109 -30 -65 -34 -250 -9 -343 35
-126 98 -201 194 -232 100 -32 212 -12 267 47 32 35 58 115 55 169 -16 289
-137 472 -316 476 -29 0 -66 -3 -83 -8z m135 -150 c22 -22 39 -59 46 -100 3
-14 7 -31 9 -38 10 -27 19 -118 19 -174 -1 -41 -6 -64 -19 -78 -24 -26 -37
-25 -73 5 -44 36 -73 158 -73 298 0 95 43 135 91 87z"/>
<path d="M3379 4713 c-5 -14 -9 -27 -9 -30 0 -3 -45 -144 -100 -313 -55 -169
-100 -310 -100 -314 0 -3 82 -5 182 -4 l181 3 17 50 c36 105 43 94 -59 97
l-89 3 79 260 c43 143 79 263 79 267 0 5 -39 7 -86 6 -81 -1 -86 -3 -95 -25z"/>
<path d="M3741 4701 c-137 -523 -141 -553 -82 -612 57 -57 214 -66 308 -17 95
50 120 109 173 411 6 34 17 91 25 127 8 36 16 79 20 97 l5 32 -73 0 -74 0 -12
-52 c-12 -54 -14 -67 -30 -152 -18 -96 -52 -240 -67 -286 -21 -67 -79 -91
-109 -45 -14 22 -14 33 10 142 14 66 39 174 55 242 17 67 30 129 30 138 0 12
-16 14 -85 13 l-85 -1 -9 -37z"/>
<path d="M4725 4731 c-2 -4 -6 -55 -10 -115 -3 -60 -8 -128 -10 -150 -2 -23
-7 -77 -10 -121 -4 -44 -9 -93 -11 -110 -1 -16 -6 -65 -9 -107 l-7 -78 96 0
96 0 1 73 c1 39 3 86 4 102 1 17 3 55 4 85 2 69 6 62 66 -118 l48 -143 104 3
c66 1 103 6 103 13 0 6 -9 29 -19 51 -57 117 -141 320 -141 338 0 7 32 68 71
137 39 68 74 130 76 137 4 9 -14 12 -75 11 l-79 -1 -69 -139 c-38 -76 -72
-139 -77 -139 -4 0 -6 4 -3 9 3 4 8 59 12 121 3 62 7 121 9 131 4 18 -3 19
-81 17 -47 -1 -87 -4 -89 -7z"/>
<path d="M5226 4730 c-2 -3 -2 -30 0 -60 1 -30 3 -182 4 -337 l3 -283 80 0 79
0 -6 98 c-14 198 -17 266 -11 260 12 -12 95 -150 95 -158 0 -5 3 -10 8 -12 4
-1 14 -15 22 -30 8 -15 33 -56 55 -93 l39 -65 83 0 82 0 -4 38 c-2 20 -6 69
-9 107 -4 39 -8 88 -11 110 -2 22 -7 67 -9 100 -3 33 -8 94 -12 135 -11 129
-12 134 -13 168 l-1 33 -67 -3 -68 -3 1 -30 c1 -31 11 -158 20 -255 l5 -55
-21 30 c-35 51 -147 238 -166 278 l-18 38 -79 -3 c-43 -1 -80 -5 -81 -8z"/>
<path d="M6250 4727 c0 -5 12 -39 26 -75 14 -37 35 -92 46 -122 12 -30 27 -68
34 -85 7 -16 25 -66 42 -110 16 -44 33 -89 37 -100 5 -11 22 -56 39 -100 l31
-80 110 0 c104 0 110 1 109 20 -5 63 -16 184 -19 205 -2 14 -6 63 -10 110 l-6
85 34 -80 c18 -44 57 -140 86 -212 l53 -133 110 1 110 0 -7 72 c-7 82 -14 154
-20 212 -2 22 -7 72 -11 110 -4 39 -8 77 -9 85 -1 8 -5 47 -10 85 -4 39 -9 77
-11 85 -1 8 -3 21 -3 28 -1 10 -19 13 -71 11 -57 -2 -70 -5 -70 -18 0 -9 14
-111 30 -225 17 -115 29 -213 28 -218 -3 -9 -51 100 -144 327 l-54 130 -91 2
-91 2 6 -62 c4 -34 9 -82 12 -107 2 -25 6 -63 9 -85 2 -22 7 -80 11 -130 3
-49 9 -94 12 -100 3 -7 2 -7 -5 0 -10 9 -29 62 -137 368 l-41 118 -82 -3 c-46
-1 -83 -6 -83 -11z"/>
<path d="M2936 3925 c-76 -20 -150 -88 -192 -179 -39 -83 -31 -137 31 -209 43
-50 44 -80 6 -116 -35 -33 -92 -36 -135 -7 -15 9 -29 16 -30 14 -8 -11 -56
-120 -56 -127 0 -22 37 -35 105 -37 145 -5 248 55 310 181 44 92 37 138 -35
225 -38 46 -44 65 -29 92 24 45 95 55 134 18 20 -19 20 -19 49 52 28 68 29 71
11 84 -10 8 -30 14 -44 15 -14 0 -39 2 -54 3 -15 1 -47 -3 -71 -9z"/>
<path d="M5282 3928 c-85 -14 -155 -88 -189 -197 -24 -79 -24 -230 1 -300 25
-72 87 -135 154 -155 58 -17 183 -15 250 3 l42 12 -6 152 c-4 84 -8 154 -10
156 -3 3 -31 4 -120 2 l-42 -1 2 -92 1 -93 -26 -3 c-36 -4 -76 44 -85 104 -11
76 0 178 25 217 35 57 99 71 166 37 22 -11 41 -20 42 -20 2 0 3 34 3 75 0 66
-2 76 -21 86 -39 20 -124 28 -187 17z"/>
<path d="M7295 3932 c-76 -12 -100 -45 -93 -124 9 -108 69 -190 192 -262 80
-47 116 -81 116 -111 0 -48 -58 -57 -132 -21 -17 9 -33 14 -36 11 -3 -2 6 -35
19 -72 24 -67 24 -67 74 -80 102 -26 202 -10 237 38 43 58 10 186 -68 262 -21
21 -77 62 -123 90 -84 51 -128 100 -113 124 13 21 59 22 99 2 20 -10 41 -19
45 -19 10 0 -32 110 -50 132 -18 21 -115 39 -167 30z"/>
<path d="M3215 3920 c-18 -6 -185 -486 -185 -532 0 -78 56 -120 165 -124 123
-5 210 38 260 128 22 41 149 452 157 512 3 19 -2 21 -55 21 -33 0 -63 -3 -69
-6 -9 -6 -42 -108 -104 -318 -51 -172 -86 -221 -143 -200 -21 8 -23 14 -18 52
3 23 37 137 75 252 39 116 68 212 66 215 -7 6 -130 7 -149 0z"/>
<path d="M3704 3918 c-3 -4 -18 -58 -34 -120 -16 -62 -54 -204 -84 -316 -31
-111 -56 -205 -56 -207 0 -7 180 -3 181 4 0 3 2 13 4 21 2 8 6 30 10 49 3 19
8 38 10 41 3 4 7 25 11 46 3 22 7 40 7 41 1 1 29 4 62 8 110 12 192 83 219
190 16 62 16 148 0 181 -25 53 -70 68 -207 69 -65 0 -121 -3 -123 -7z m176
-138 c11 -17 3 -77 -15 -116 -13 -28 -61 -61 -72 -50 -5 4 14 98 34 168 5 20
40 19 53 -2z"/>
<path d="M4130 3920 c-5 -3 -11 -28 -14 -55 -7 -60 -13 -95 -26 -155 -5 -25
-11 -61 -14 -80 -2 -19 -9 -60 -15 -90 -6 -30 -12 -66 -15 -80 -3 -14 -12 -61
-20 -105 -9 -44 -16 -81 -16 -82 0 -1 82 -1 182 0 l182 2 7 35 c4 19 10 51 13
71 l5 36 -95 -3 -95 -3 6 37 c15 92 15 92 43 93 15 0 49 1 76 2 l50 2 11 63
c8 44 8 62 1 63 -6 1 -42 1 -79 0 l-69 -2 6 45 c11 77 9 76 97 76 56 0 79 4
80 13 0 6 2 21 4 32 2 11 5 36 7 55 l3 35 -153 0 c-85 0 -158 -2 -162 -5z"/>
<path d="M4529 3920 c-12 -8 -15 -27 -24 -160 -4 -52 -8 -97 -10 -100 -1 -3
-6 -45 -10 -95 -4 -49 -8 -92 -10 -95 -2 -3 -6 -36 -10 -75 -3 -38 -8 -82 -11
-98 l-4 -27 82 1 c46 1 88 4 93 6 6 2 11 40 13 86 2 45 4 93 6 107 2 14 4 31
5 38 3 35 32 -24 45 -93 1 -5 8 -41 16 -78 l14 -69 90 6 c50 3 94 5 99 5 4 1
0 18 -9 39 -9 20 -31 81 -50 135 l-34 98 30 38 c17 20 35 53 40 72 16 51 10
149 -12 191 -29 59 -63 71 -210 73 -71 0 -133 -2 -139 -5z m195 -140 c16 -16
12 -85 -8 -114 -12 -19 -24 -26 -39 -24 -19 3 -22 8 -19 39 2 19 5 44 7 55 2
10 4 29 4 41 1 17 6 21 23 18 12 -3 26 -9 32 -15z"/>
<path d="M5585 3919 c-2 -3 -2 -20 0 -37 7 -57 17 -185 30 -412 4 -69 9 -134
10 -145 1 -11 3 -28 4 -37 1 -16 12 -18 91 -16 65 2 91 6 95 16 3 8 3 17 1 20
-2 4 -7 36 -11 72 -3 36 -8 72 -10 80 -2 8 -7 53 -10 100 -4 47 -8 87 -10 90
-2 3 -6 50 -10 105 -4 55 -9 111 -10 125 -2 14 -3 30 -4 35 -1 10 -160 15
-166 4z"/>
<path d="M5924 3918 c-3 -5 -7 -27 -10 -50 -5 -52 -24 -203 -29 -238 -4 -27
-11 -76 -21 -150 -3 -25 -12 -82 -18 -128 l-13 -83 79 2 c43 1 81 5 84 10 3 5
7 39 10 76 2 37 9 70 13 73 14 8 122 3 130 -7 4 -4 18 -41 30 -80 l23 -73 89
3 c49 1 89 6 89 11 0 5 -36 93 -79 195 -44 102 -98 233 -120 291 -65 165 -54
155 -161 155 -51 0 -94 -3 -96 -7z m140 -240 c16 -51 31 -98 33 -104 5 -14
-69 -17 -78 -3 -3 5 -3 31 0 57 4 26 6 68 6 95 0 26 2 47 5 47 3 0 18 -42 34
-92z"/>
<path d="M6280 3920 c-4 -3 10 -86 31 -185 22 -99 42 -193 45 -210 3 -16 15
-79 27 -140 l22 -110 73 -2 c70 -1 72 0 72 24 0 13 -4 32 -10 42 -5 10 -11 29
-14 42 -2 13 -16 70 -30 126 -14 56 -26 104 -26 107 0 4 63 -73 140 -169 l141
-175 74 1 c41 1 75 5 75 9 0 5 -24 93 -54 197 -30 103 -69 242 -87 308 -17 66
-36 125 -40 131 -8 10 -114 12 -124 3 -2 -3 16 -74 41 -159 24 -85 44 -156 44
-158 0 -4 -28 29 -97 114 -18 21 -62 77 -98 124 l-64 85 -67 0 c-36 0 -69 -2
-74 -5z"/>
<path d="M6767 3922 c-12 -3 -14 -8 -8 -25 5 -12 14 -41 20 -64 7 -24 17 -43
24 -44 7 0 32 -1 57 -2 l45 -2 52 -170 c28 -93 63 -209 78 -257 l26 -88 90 0
c49 0 89 4 89 8 0 5 -9 35 -21 68 -42 119 -149 434 -149 439 0 3 25 5 55 5 30
0 55 1 55 3 0 1 -11 31 -23 67 l-23 65 -175 0 c-96 0 -183 -1 -192 -3z"/>
<path d="M4752 3161 c-7 -4 -13 -107 -17 -267 l-7 -261 27 -21 c25 -20 116
-54 180 -68 17 -3 79 -9 139 -11 158 -8 305 20 403 76 l42 24 -5 191 c-3 105
-7 225 -8 266 l-3 75 -370 1 c-204 1 -376 -2 -381 -5z"/>
</g>
</svg>
